# xmcd
#
# Track frame offsets:
#	150
#	37197
#	55927
#	100597
#	123505
#	151755
#	196425
#	225535
#
# Disc length: 3346 seconds
#
# Revision: 2
# Processed by: cddbd v1.5.1PL0 Copyright (c) Steve Scherf et al.
# Submitted via: audiograbber 1.83.01
#
DISCID=610d1008
DTITLE=Various Artist - Giants of the Blues and Funk Tenor Sax CD1
DYEAR=1981
DGENRE=Blues
TTITLE0=Buddy Tate - No Kidding
TTITLE1=Jimmy Forrest - Bolo Blues
TTITLE2=Coleman Hawkins - Soul Blues
TTITLE3=Arnett Cobb - Smooth Sailing
TTITLE4=Eddie Lockjaw Davis - I'm Just a Lucky So and So
TTITLE5=Cobb Davis Hawkins Tate - Light and Lovely
TTITLE6=Hal Singer - Blue Stompin
TTITLE7=Al Sears - New Carnegie Blues
EXTD=
EXTT0=
EXTT1=
EXTT2=
EXTT3=
EXTT4=
EXTT5=
EXTT6=
EXTT7=
PLAYORDER=
